<svg xmlns="http://www.w3.org/2000/svg" viewBox="0 0 450 120" width="100%" height="100%">
  <!-- Left Graphic (M & S with a small star) -->
  <g transform="translate(10, 10)">
    <!-- Star -->
    <path d="M40 0 L43 15 L58 18 L43 21 L40 36 L37 21 L22 18 L37 15 Z" fill="#D4AF37" />
    <!-- M -->
    <path d="M10 90 L25 15 L45 60 L65 15 L80 90 L68 90 L55 35 L45 80 L35 35 L22 90 Z" fill="#FFFFFF" />
    <!-- S overlaying M -->
    <path d="M80 30 C70 15, 45 15, 35 30 C25 45, 65 50, 65 65 C65 80, 30 85, 20 65" fill="none" stroke="#D4AF37" stroke-width="6" stroke-linecap="round" />
  </g>
  <!-- Text -->
  <text x="110" y="55" font-family="Georgia, serif" font-size="36" font-weight="700" fill="#D4AF37" letter-spacing="4">MOONLIGHT</text>
  <text x="115" y="85" font-family="Arial, sans-serif" font-size="16" fill="#FFFFFF" letter-spacing="6">STAR FASHION</text>
</svg>
